<svg width="70" height="61" viewBox="0 0 70 61" fill="none" xmlns="http://www.w3.org/2000/svg">
<g clip-path="url(#clip0_0_1)">
<g filter="url(#filter0_d_0_1)">
<g clip-path="url(#clip1_0_1)">
<path d="M36.2781 14.847L36.3706 14.8746L36.3746 14.87C36.8148 14.95 37.2517 14.6864 37.381 14.2497C38.5609 10.2852 42.278 7.51571 46.4194 7.51571C46.9091 7.51571 47.3062 7.11856 47.3062 6.6289C47.3062 6.13922 46.909 5.74209 46.4194 5.74209C41.3307 5.74209 37.0544 9.13019 35.6814 13.7442C35.5414 14.2137 35.8089 14.7071 36.2781 14.847Z" fill="#483EA8" stroke="#F9FFF9" stroke-width="0.3"/>
<path d="M56.7343 42.7326H52.3136C51.9067 42.7326 51.5767 42.4026 51.5767 41.9958C51.5767 41.589 51.9067 41.259 52.3136 41.259H56.7343C62.8282 41.259 67.7864 36.3008 67.7864 30.2069C67.7864 24.1131 62.8282 19.1549 56.7343 19.1549H56.628C56.4143 19.1549 56.2112 19.0623 56.0712 18.9007C55.9312 18.7391 55.868 18.5249 55.8986 18.3134C55.9644 17.8545 55.9975 17.3934 55.9975 16.9445C55.9975 11.6632 51.7003 7.36602 46.419 7.36602C44.3644 7.36602 42.405 8.00809 40.7524 9.22327C40.3893 9.49011 39.8735 9.37169 39.6635 8.97223C34.9833 0.0601131 22.759 -1.13669 16.4213 6.61607C13.7515 9.8822 12.7024 14.1309 13.543 18.2718C13.6357 18.7292 13.2857 19.1555 12.821 19.1555H12.5257C6.43188 19.1555 1.47368 24.1137 1.47368 30.2075C1.47368 36.3013 6.43188 41.2595 12.5257 41.2595H16.9465C17.3533 41.2595 17.6833 41.5895 17.6833 41.9963C17.6833 42.4032 17.3533 42.7332 16.9465 42.7332H12.5257C5.61918 42.7332 0 37.114 0 30.2075C0 23.4947 5.30809 17.9981 11.9473 17.6949C11.3237 13.3988 12.5162 9.06536 15.2803 5.6835C22.0657 -2.61762 35.0694 -1.68717 40.5664 7.56918C42.32 6.46976 44.3267 5.893 46.4188 5.893C52.8174 5.893 57.8877 11.3391 57.444 17.7018C64.0221 18.0707 69.2597 23.5383 69.2597 30.2069C69.2597 37.114 63.6405 42.7326 56.734 42.7326L56.7343 42.7326Z" fill="#483EA8"/>
<path d="M15.9609 41.5797C15.9609 51.8196 24.2915 60.15 34.5312 60.15C44.7711 60.15 53.1015 51.8194 53.1015 41.5797C53.1015 31.3398 44.7711 23.0094 34.5312 23.0094C24.2913 23.0094 15.9609 31.34 15.9609 41.5797ZM17.7348 41.5797C17.7348 32.3185 25.2698 24.7834 34.5312 24.7834C43.7924 24.7834 51.3275 32.3184 51.3275 41.5797C51.3275 50.8409 43.7924 58.376 34.5312 58.376C25.27 58.376 17.7348 50.8411 17.7348 41.5797Z" fill="#483EA8" stroke="#F9FFF9" stroke-width="0.3"/>
<path d="M34.1787 48.995C34.1787 49.3757 34.4874 49.6844 34.8681 49.6844C35.2487 49.6844 35.5575 49.3761 35.5575 48.995V34.9698C35.5575 34.5892 35.2488 34.2804 34.8681 34.2804C34.4874 34.2804 34.1787 34.5892 34.1787 34.9698V48.995Z" fill="#483EA8" stroke="#483EA8" stroke-width="0.3"/>
<path d="M34.8681 35.9462L31.0404 39.7739L34.8681 35.9462ZM34.8681 35.9462L38.696 39.774C38.8304 39.9085 39.0074 39.9759 39.1835 39.9759L34.8681 35.9462ZM30.0652 39.774C30.3345 40.0433 30.7712 40.0434 31.0403 39.774L39.1835 39.9759C39.3592 39.9759 39.5363 39.9091 39.671 39.774C39.9403 39.5047 39.9403 39.0683 39.671 38.799L35.3556 34.4836C35.0864 34.2144 34.6496 34.2142 34.3806 34.4836C34.3806 34.4837 34.3805 34.4837 34.3805 34.4837L30.0652 38.799C29.7959 39.0683 29.7959 39.5047 30.0652 39.774Z" fill="#483EA8" stroke="#483EA8" stroke-width="0.3"/>
</g>
</g>
</g>
<defs>
<filter id="filter0_d_0_1" x="-668" y="-149" width="1655" height="390" filterUnits="userSpaceOnUse" color-interpolation-filters="sRGB">
<feFlood flood-opacity="0" result="BackgroundImageFix"/>
<feColorMatrix in="SourceAlpha" type="matrix" values="0 0 0 0 0 0 0 0 0 0 0 0 0 0 0 0 0 0 127 0" result="hardAlpha"/>
<feOffset dy="10"/>
<feGaussianBlur stdDeviation="15"/>
<feComposite in2="hardAlpha" operator="out"/>
<feColorMatrix type="matrix" values="0 0 0 0 0.196078 0 0 0 0 0.160784 0 0 0 0 0.486275 0 0 0 0.05 0"/>
<feBlend mode="normal" in2="BackgroundImageFix" result="effect1_dropShadow_0_1"/>
<feBlend mode="normal" in="SourceGraphic" in2="effect1_dropShadow_0_1" result="shape"/>
</filter>
<clipPath id="clip0_0_1">
<rect width="1920" height="2258" fill="white" transform="translate(-943 -1901)"/>
</clipPath>
<clipPath id="clip1_0_1">
<rect x="-638" y="-129" width="1595" height="330" rx="16" fill="white"/>
</clipPath>
</defs>
</svg>
